<?xml version="1.0" encoding="UTF-8"?>
<!DOCTYPE svg PUBLIC "-//W3C//DTD SVG 1.1//EN" "http://www.w3.org/Graphics/SVG/1.1/DTD/svg11.dtd">
<!-- Creator: CorelDRAW 2018 (64-Bit Evaluation Version) -->
<svg xmlns="http://www.w3.org/2000/svg" xml:space="preserve" width="400px" height="95px" version="1.1" style="shape-rendering:geometricPrecision; text-rendering:geometricPrecision; image-rendering:optimizeQuality; fill-rule:evenodd; clip-rule:evenodd"
viewBox="0 0 37.88 8.98"
 xmlns:xlink="http://www.w3.org/1999/xlink">
 <defs>
  <style type="text/css">
   <![CDATA[
    .fil0 {fill:#B92855}
   ]]>
  </style>
 </defs>
 <g id="Layer_x0020_1">
  <metadata id="CorelCorpID_0Corel-Layer"/>
  <g id="_2191047694432">
   <polygon class="fil0" points="34.99,6.03 34.99,2.79 35.6,2.79 35.6,4.13 36.95,2.79 37.7,2.79 36.21,4.23 37.88,6.03 37.09,6.03 35.6,4.37 35.6,6.03 "/>
   <path class="fil0" d="M31.18 6.03l0 -3.37 2.39 1.98c0.06,0.06 0.13,0.12 0.2,0.18 0.06,0.06 0.13,0.14 0.21,0.22l0 -2.25 0.56 0 0 3.37 -2.44 -2.02c-0.06,-0.06 -0.12,-0.11 -0.19,-0.17 -0.06,-0.07 -0.11,-0.13 -0.17,-0.2l0 2.26 -0.56 0z"/>
   <path class="fil0" d="M30.23 6.03l-0.43 -0.84 -1.49 0 -0.44 0.84 -0.64 0 1.82 -3.37 1.82 3.37 -0.64 0zm-1.7 -1.27l1.05 0 -0.38 -0.74c-0.02,-0.05 -0.05,-0.11 -0.07,-0.17 -0.03,-0.06 -0.05,-0.13 -0.07,-0.2 -0.03,0.07 -0.05,0.14 -0.07,0.2 -0.02,0.06 -0.05,0.11 -0.07,0.17l-0.39 0.74z"/>
   <path class="fil0" d="M24.83 6.03l0 -3.24 0.95 0c0.27,0 0.47,0.01 0.6,0.03 0.13,0.03 0.24,0.07 0.33,0.13 0.12,0.07 0.21,0.17 0.27,0.29 0.07,0.12 0.1,0.25 0.1,0.4 0,0.17 -0.05,0.31 -0.14,0.43 -0.09,0.11 -0.23,0.2 -0.4,0.24 0.22,0.03 0.39,0.12 0.52,0.26 0.12,0.14 0.18,0.32 0.18,0.54 0,0.13 -0.02,0.25 -0.07,0.37 -0.06,0.12 -0.13,0.22 -0.23,0.3 -0.1,0.09 -0.23,0.16 -0.38,0.2 -0.16,0.03 -0.41,0.05 -0.77,0.05l-0.96 0zm0.6 -0.44l0.21 0c0.22,0 0.38,-0.01 0.48,-0.02 0.11,-0.02 0.19,-0.04 0.26,-0.08 0.07,-0.04 0.13,-0.1 0.17,-0.17 0.04,-0.08 0.06,-0.15 0.06,-0.24 0,-0.11 -0.02,-0.2 -0.07,-0.27 -0.05,-0.08 -0.12,-0.14 -0.22,-0.18 -0.05,-0.03 -0.12,-0.05 -0.19,-0.06 -0.08,-0.01 -0.18,-0.02 -0.3,-0.02l-0.19 0 -0.21 0 0 1.04zm0 -1.43l0.24 0c0.29,0 0.49,-0.04 0.61,-0.11 0.13,-0.07 0.19,-0.18 0.19,-0.34 0,-0.18 -0.06,-0.31 -0.17,-0.38 -0.11,-0.07 -0.32,-0.1 -0.63,-0.1l-0.24 0 0 0.93z"/>
   <path class="fil0" d="M20.22 5.38l0.47 -0.19c0.04,0.14 0.12,0.25 0.24,0.33 0.12,0.07 0.27,0.11 0.46,0.11 0.17,0 0.31,-0.04 0.41,-0.13 0.1,-0.09 0.16,-0.2 0.16,-0.35 0,-0.19 -0.18,-0.36 -0.53,-0.51 -0.05,-0.02 -0.09,-0.04 -0.12,-0.05 -0.39,-0.17 -0.66,-0.33 -0.79,-0.47 -0.13,-0.14 -0.2,-0.31 -0.2,-0.52 0,-0.26 0.1,-0.48 0.3,-0.64 0.2,-0.17 0.46,-0.25 0.79,-0.25 0.26,0 0.49,0.05 0.66,0.14 0.18,0.09 0.31,0.23 0.38,0.4l-0.46 0.21c-0.07,-0.1 -0.15,-0.17 -0.24,-0.22 -0.09,-0.05 -0.19,-0.07 -0.3,-0.07 -0.15,0 -0.28,0.03 -0.37,0.11 -0.1,0.07 -0.14,0.17 -0.14,0.3 0,0.19 0.2,0.37 0.61,0.54 0.03,0.01 0.06,0.02 0.07,0.03 0.36,0.15 0.6,0.29 0.74,0.43 0.13,0.15 0.2,0.32 0.2,0.53 0,0.31 -0.11,0.55 -0.33,0.74 -0.21,0.18 -0.5,0.27 -0.87,0.27 -0.31,0 -0.56,-0.07 -0.75,-0.19 -0.2,-0.13 -0.33,-0.31 -0.39,-0.55z"/>
   <polygon class="fil0" points="19.15,6.03 19.15,2.79 19.73,2.79 19.73,6.03 "/>
   <path class="fil0" d="M15.63 6.03l1.17 -1.7 -1.04 -1.54 0.62 0 0.52 0.79c0.03,0.04 0.08,0.13 0.15,0.26l0.04 0.06c0.03,-0.04 0.06,-0.09 0.09,-0.15 0.03,-0.05 0.07,-0.1 0.11,-0.17l0.55 -0.79 0.6 0 -1.06 1.53 1.14 1.71 -0.65 0 -0.6 -0.92 -0.01 -0.01c-0.07,-0.12 -0.13,-0.22 -0.18,-0.32 -0.03,0.05 -0.06,0.11 -0.09,0.16 -0.04,0.05 -0.07,0.11 -0.11,0.16l-0.63 0.93 -0.62 0z"/>
   <path class="fil0" d="M14.88 6.03l-0.41 -0.84 -1.43 0 -0.42 0.84 -0.62 0 1.75 -3.37 1.74 3.37 -0.61 0zm-1.63 -1.27l1.01 0 -0.37 -0.74c-0.02,-0.05 -0.04,-0.11 -0.07,-0.17 -0.02,-0.06 -0.04,-0.13 -0.07,-0.2 -0.02,0.07 -0.04,0.14 -0.06,0.2 -0.02,0.06 -0.04,0.11 -0.07,0.17l-0.37 0.74z"/>
   <polygon class="fil0" points="0,8.98 5.26,0 6.88,2.72 3.37,8.94 "/>
   <polygon class="fil0" points="5.3,5.57 8.55,5.52 10.52,8.94 7.19,8.94 "/>
  </g>
 </g>
</svg>
