<?xml version="1.0" encoding="UTF-8"?>
<!DOCTYPE svg PUBLIC "-//W3C//DTD SVG 1.1//EN" "http://www.w3.org/Graphics/SVG/1.1/DTD/svg11.dtd">
<!-- Creator: CorelDRAW 2018 (64-Bit Evaluation Version) -->
<svg xmlns="http://www.w3.org/2000/svg" xml:space="preserve" width="1996px" height="717px" version="1.1" style="shape-rendering:geometricPrecision; text-rendering:geometricPrecision; image-rendering:optimizeQuality; fill-rule:evenodd; clip-rule:evenodd"
viewBox="0 0 1996.03 716.63"
 xmlns:xlink="http://www.w3.org/1999/xlink">
 <defs>
  <style type="text/css">
   <![CDATA[
    .fil2 {fill:#FEFEFE}
    .fil1 {fill:#E31E24}
    .fil3 {fill:#1E1F1E}
    .fil0 {fill:#323D85}
   ]]>
  </style>
 </defs>
 <g id="Layer_x0020_1">
  <metadata id="CorelCorpID_0Corel-Layer"/>
  <polygon class="fil0" points="194.58,0 304.87,116.77 333.27,210.04 336.65,306.66 290.31,354.93 212.52,448.93 194.58,479.15 998.53,479.82 1996.03,479.15 1996.03,0 "/>
  <path class="fil1" d="M188.46 305.95l0 -48.95 -18.95 0 60.25 -48.96 60.92 48.96 -23.73 0 0 48.95 -78.49 0zm314.37 -66.42c0,-132.1 -107.98,-239.53 -240.9,-239.53l-261.27 0 0 172.45 76.83 -55.68 112.02 81.22 -40.93 0 0 107.34 -147.92 0 0 173.82 258.85 0 2.06 0c132.98,0 241.26,-106.73 241.26,-239.62z"/>
  <polygon class="fil0" points="0,533.44 998.53,533.44 998.53,716.63 0,716.63 "/>
  <polygon class="fil1" points="998.53,533.44 1996.03,533.44 1996.03,716.63 998.53,716.63 "/>
  <path class="fil2" d="M98.45 599.83c-3.69,-16.04 -14.17,-22.1 -30.46,-22.1 -23.31,0 -33.13,19.44 -33.13,42.29 0,21.51 7.76,42.99 33.84,42.99 16.57,0 27.04,-11.47 30.4,-26.19l9.55 0c-4.06,18.11 -15.94,33.49 -41.65,33.49 -29.76,0 -41.25,-22.81 -41.25,-50.29 0,-36.23 18.93,-50.39 44.63,-50.39 19.65,0 34.21,10.78 37.22,30.2l-9.15 0z"/>
  <path class="fil2" d="M125.19 667.6l0 -95.24 8.17 0 0 36.26c6.39,-6.77 12.45,-11.45 22.33,-11.45 8.43,0 16.21,2.66 20.93,10.07 3.38,4.75 3.38,10.12 3.38,15.47l0 44.89 -7.76 0 0 -44.18c0,-12.76 -5.12,-18.84 -17.94,-18.84 -10.14,0 -16.59,6.08 -19.3,13.47 -1.34,3.95 -1.64,7.97 -1.64,12.76l0 36.79 -8.17 0z"/>
  <path class="fil2" d="M220.33 629.43c-16.33,2 -24.06,9.39 -24.06,20.8 0,12.78 10.79,19.42 22.99,19.42 9.81,0 19.26,-4 25.71,-11.37 0.33,4.73 1.02,9.32 6.43,9.97 1.36,0.69 2.37,0.69 3.4,0.69 2.67,0 5.42,-1.34 6.44,-1.34l0 -5.96c-6.77,1.99 -8.48,0.68 -8.48,-5.38l0 -37.61c0,-16.09 -10.8,-21.48 -25.06,-21.48 -14.85,0 -27.38,6.76 -28.4,22.86l8.1 0c1.71,-12.06 9.15,-15.45 20.3,-15.45 12.2,0 17.27,6.08 17.27,14.07 0,2.06 -0.33,6.06 -3.01,6.72 -2.71,1.4 -7.46,1.96 -10.5,1.96l-11.13 2.1zm24.64 13.43c0,13.4 -12.51,19.46 -25.36,19.46 -7.44,0 -14.87,-4.04 -14.87,-12.09 0,-9.41 7.43,-13.41 19.63,-14.85 6.76,-0.62 13.82,-0.62 20.6,-3.95l0 11.43z"/>
  <path class="fil2" d="M281.86 667.6l-8.1 0 0 -68.41 8.1 0 0 9.43c6.45,-6.77 12.85,-11.45 22.35,-11.45 8.44,0 16.24,2.66 20.98,10.07 3.71,4.75 3.71,10.12 3.71,15.47l0 44.89 -8.13 0 0 -44.18c0,-12.76 -5.07,-18.84 -17.91,-18.84 -9.84,0 -16.62,6.08 -19.3,13.47 -1.33,3.95 -1.7,7.97 -1.7,12.76l0 36.79z"/>
  <path class="fil2" d="M401.65 611.28l-0.33 0c-4.72,-9.43 -14.9,-14.11 -24.06,-14.11 -22.33,0 -31.14,16.09 -31.14,36.24 0,19.46 9.84,36.23 30.82,36.23 9.8,0 19.66,-4.66 24.71,-12.75 0.34,15.46 -2.76,31.57 -24.39,31.57 -9.47,0 -18.29,-2.04 -20.63,-12.01l-8.47 0c0.37,8 8.79,19.4 29.1,19.4 26.4,0 32.47,-16.15 32.47,-34.22l0 -62.44 -8.08 0 0 12.09zm0 22.82c0,15.44 -8.81,28.22 -23.34,28.22 -16.65,0 -24.41,-13.51 -23.69,-30.89 0,-17.49 10.13,-26.85 23.69,-26.85 15.21,0 23.34,12.78 23.34,29.52z"/>
  <path class="fil2" d="M430.72 572.36l8.8 0 0 12.14 -8.8 0 0 -12.14zm0.36 26.83l8.11 0 0 68.41 -8.11 0 0 -68.41z"/>
  <path class="fil2" d="M467.29 667.6l-7.79 0 0 -68.41 7.79 0 0 9.43c6.75,-6.77 12.82,-11.45 22.67,-11.45 8.43,0 16.26,2.66 21.01,10.07 3.36,4.75 3.36,10.12 3.36,15.47l0 44.89 -7.8 0 0 -44.18c0,-12.76 -5.05,-18.84 -17.92,-18.84 -9.86,0 -16.62,6.08 -19.3,13.47 -1.67,3.95 -2.02,7.97 -2.02,12.76l0 36.79z"/>
  <path class="fil2" d="M587.4 611.28l-0.32 0c-4.79,-9.43 -15.23,-14.11 -24.03,-14.11 -22.34,0 -31.48,16.09 -31.48,36.24 0,19.46 9.81,36.23 31.09,36.23 9.86,0 19.33,-4.66 24.74,-12.75 0.32,15.46 -2.71,31.57 -24.74,31.57 -9.46,0 -18.23,-2.04 -20.56,-12.01l-8.54 0c0.42,8 8.82,19.4 29.1,19.4 26.41,0 32.52,-16.15 32.52,-34.22l0 -62.44 -7.78 0 0 12.09zm0 22.82c0,15.44 -9.14,28.22 -23.68,28.22 -16.24,0 -24.05,-13.51 -23.37,-30.89 0,-17.49 10.15,-26.85 23.37,-26.85 15.23,0 23.68,12.78 23.68,29.52z"/>
  <path class="fil2" d="M691.22 624.71c9.5,0 16.98,1.31 19.02,11.45 2.01,7.39 0.65,25.47 4.74,31.45l10.14 0 0 -0.63c-2.73,-1.99 -4.05,-6.08 -4.05,-20.15 -0.7,-10.01 -1.37,-22.12 -12.87,-26.12 11.5,-4.72 16.22,-10.83 16.22,-23.54 0,-17.44 -12.17,-24.81 -33.2,-24.81l-37.5 0 0 95.25 9.14 0 0 -42.9 28.36 0zm-28.36 -8.06l0 -36.24 28.77 0c12.52,0 23.35,3.38 23.35,17.41 0,13.46 -10.17,18.83 -23.76,18.83l-28.36 0z"/>
  <path class="fil2" d="M788.73 599.19l8.13 0 0 68.41 -8.13 0 0 -9.32c-4.05,4.73 -10.14,11.37 -22.32,11.37 -18.27,0 -24.39,-10.72 -24.39,-24.84l0 -45.62 8.09 0 0 45.04c0,12.03 4.77,18.09 17.63,18.09 12.84,0 20.99,-10.78 20.99,-25.5l0 -37.63z"/>
  <polygon class="fil2" points="825.29,572.36 817.14,572.36 817.14,667.6 825.29,667.6 "/>
  <path class="fil2" d="M904.45 635.38c0,-24.72 -11.5,-38.21 -30.45,-38.21 -19.65,0 -31.82,16.78 -31.82,36.92 0,20.13 9.46,35.55 31.82,35.55 17.57,0 25.69,-10.03 29.79,-22.81l-8.81 0c-2.72,10.06 -10.82,15.49 -20.98,15.49 -15.56,0 -23.7,-12.1 -23.01,-26.94l53.46 0zm-53.46 -6.66c1.34,-12.73 8.76,-24.14 23.01,-24.14 14.21,0 21.65,10.74 21.65,24.14l-44.66 0z"/>
  <path class="fil2" d="M924.74 646.15c2.73,12.13 8.81,16.17 20.97,16.17 11.53,0 16.92,-6.06 16.92,-12.09 0,-20.19 -44.66,-6 -44.66,-32.87 0,-11.45 8.8,-20.19 24.38,-20.19 14.89,0 25.05,6.01 27.06,21.48l-8.1 0c-2.06,-10.03 -8.85,-14.07 -18.96,-14.07 -10.18,0 -15.58,4.75 -15.58,12.07 0,18.11 44.68,6.77 44.68,32.89 0,13.47 -12.2,20.11 -28.43,20.11 -16.25,0 -25.74,-10.04 -26.41,-23.5l8.13 0z"/>
  <path class="fil2" d="M1106.76 599.83c-4,-16.04 -14.19,-22.1 -30.44,-22.1 -23.65,0 -33.14,19.44 -33.14,42.29 0,21.51 7.42,42.99 33.86,42.99 16.18,0 27.04,-11.47 30.43,-26.19l9.45 0c-4.06,18.11 -16.27,33.49 -41.94,33.49 -29.74,0 -41.28,-22.81 -41.28,-50.29 0,-36.23 19.62,-50.39 44.71,-50.39 19.55,0 34.45,10.78 37.14,30.2l-8.79 0z"/>
  <path class="fil2" d="M1133.18 667.6l0 -95.24 8.08 0 0 36.26c6.83,-6.77 12.93,-11.45 22.39,-11.45 8.11,0 16.27,2.66 20.98,10.07 3.37,4.75 3.37,10.12 3.37,15.47l0 44.89 -7.44 0 0 -44.18c0,-12.76 -5.41,-18.84 -18.29,-18.84 -10.18,0 -16.21,6.08 -18.97,13.47 -2.04,3.95 -2.04,7.97 -2.04,12.76l0 36.79 -8.08 0z"/>
  <path class="fil2" d="M1228.55 629.43c-16.22,2 -24.34,9.39 -24.34,20.8 0,12.78 10.83,19.42 23.07,19.42 10.1,0 19.58,-4 25.67,-11.37 0,4.73 1.34,9.32 6.84,9.97 1.3,0.69 1.98,0.69 3.31,0.69 2.05,0 4.74,-1.34 6.08,-1.34l0 -5.96c-6.75,1.99 -8.09,0.68 -8.09,-5.38l0 -37.61c0,-16.09 -10.86,-21.48 -25.08,-21.48 -14.86,0 -27.66,6.76 -28.4,22.86l8.1 0c1.37,-12.06 8.78,-15.45 20.3,-15.45 12.18,0 16.94,6.08 16.94,14.07 0,2.06 0,6.06 -2.72,6.72 -2.69,1.4 -7.46,1.96 -10.79,1.96l-10.89 2.1zm24.4 13.43c0,13.4 -12.78,19.46 -25.08,19.46 -7.41,0 -14.82,-4.04 -14.82,-12.09 0,-9.41 7.41,-13.41 19.61,-14.85 6.78,-0.62 13.52,-0.62 20.29,-3.95l0 11.43z"/>
  <path class="fil2" d="M1290.14 667.6l-8.08 0 0 -68.41 8.08 0 0 9.43c6.17,-6.77 12.9,-11.45 22.38,-11.45 8.15,0 16.28,2.66 20.96,10.07 3.4,4.75 3.4,10.12 3.4,15.47l0 44.89 -8.08 0 0 -44.18c0,-12.76 -4.81,-18.84 -17.59,-18.84 -10.2,0 -16.96,6.08 -19.67,13.47 -1.4,3.95 -1.4,7.97 -1.4,12.76l0 36.79z"/>
  <path class="fil2" d="M1409.96 611.28l-0.72 0c-4.7,-9.43 -14.84,-14.11 -23.67,-14.11 -22.34,0 -31.1,16.09 -31.1,36.24 0,19.46 9.43,36.23 30.49,36.23 10.1,0 19.58,-4.66 25,-12.75 0,15.46 -2.71,31.57 -25,31.57 -9.53,0 -17.6,-2.04 -20.31,-12.01l-8.81 0c0.69,8 8.81,19.4 29.12,19.4 27.08,0 32.43,-16.15 32.43,-34.22l0 -62.44 -7.43 0 0 12.09zm0 22.82c0,15.44 -9.45,28.22 -23.73,28.22 -16.2,0 -24.32,-13.51 -23.65,-30.89 0,-17.49 10.16,-26.85 23.65,-26.85 14.93,0 23.73,12.78 23.73,29.52z"/>
  <path class="fil2" d="M1439.06 572.36l8.75 0 0 12.14 -8.75 0 0 -12.14zm0 26.83l8.12 0 0 68.41 -8.12 0 0 -68.41z"/>
  <path class="fil2" d="M1475.65 667.6l-8.13 0 0 -68.41 8.13 0 0 9.43c6.02,-6.77 12.83,-11.45 22.29,-11.45 8.16,0 16.27,2.66 21,10.07 3.41,4.75 3.41,10.12 3.41,15.47l0 44.89 -7.51 0 0 -44.18c0,-12.76 -5.42,-18.84 -18.25,-18.84 -9.46,0 -16.96,6.08 -18.94,13.47 -2,3.95 -2,7.97 -2,12.76l0 36.79z"/>
  <path class="fil2" d="M1595.41 611.28l0 0c-5.41,-9.43 -15.61,-14.11 -24.38,-14.11 -22.36,0 -31.16,16.09 -31.16,36.24 0,19.46 9.52,36.23 30.44,36.23 10.2,0 19.69,-4.66 25.1,-12.75 0.67,15.46 -2.69,31.57 -24.38,31.57 -9.46,0 -18.32,-2.04 -21.01,-12.01l-8.1 0c0.72,8 8.81,19.4 29.11,19.4 26.35,0 32.47,-16.15 32.47,-34.22l0 -62.44 -8.09 0 0 12.09zm0 22.82c0,15.44 -8.89,28.22 -23.73,28.22 -16.24,0 -24.37,-13.51 -23.64,-30.89 0.63,-16.78 10.15,-26.85 23.64,-26.85 15.6,0 23.73,12.78 23.73,29.52z"/>
  <polygon class="fil2" points="1661.74,667.6 1661.74,572.36 1671.2,572.36 1671.2,660.3 1722.65,660.3 1722.65,667.6 "/>
  <path class="fil2" d="M1735.46 572.36l9.54 0 0 12.14 -9.54 0 0 -12.14zm0.66 26.83l8.14 0 0 68.41 -8.14 0 0 -68.41z"/>
  <polygon class="fil2" points="1757.83,599.19 1765.91,599.19 1788.23,658.28 1810.61,599.19 1819.4,599.19 1793.01,667.6 1783.51,667.6 "/>
  <path class="fil2" d="M1890.39 635.38c0,-24.72 -11.41,-38.21 -30.44,-38.21 -20.23,0 -31.82,16.78 -31.82,36.92 0,20.13 9.55,35.55 31.82,35.55 17.67,0 25.78,-10.03 29.75,-22.81l-8.71 0c-2.68,10.06 -10.83,15.49 -21.04,15.49 -15.52,0 -23.68,-12.1 -23.68,-26.94l54.12 0zm-54.12 -6.66c1.41,-12.73 8.89,-24.14 23.68,-24.14 14.24,0 21.69,10.74 21.69,24.14l-45.37 0z"/>
  <path class="fil2" d="M1910.78 646.15c1.95,12.13 8.74,16.17 20.28,16.17 12.17,0 17.56,-6.06 17.56,-12.09 0,-20.19 -44.63,-6 -44.63,-32.87 0,-11.45 8.74,-20.19 24.26,-20.19 14.98,0 25.14,6.01 26.52,21.48l-8.14 0c-1.39,-10.03 -8.81,-14.07 -18.38,-14.07 -10.04,0 -15.52,4.75 -15.52,12.07 0,18.11 44.04,6.77 44.04,32.89 0,13.47 -11.53,20.11 -27.76,20.11 -16.95,0 -25.7,-10.04 -27,-23.5l8.77 0z"/>
  <polygon class="fil3" points="1456,128.89 1527.02,128.89 1527.02,168.48 1615.7,168.48 1615.7,40.88 1527.02,40.88 1303.04,40.88 1303.04,128.89 1343.66,128.89 1343.66,363.67 1301.01,363.67 1301.01,451.57 1497.33,451.57 1497.33,363.67 1456,363.67 1456,289.93 1540.53,289.93 1540.53,202.67 1456,202.67 "/>
  <polygon class="fil3" points="1960.15,295.21 1847.8,295.21 1847.8,363.67 1795.65,363.67 1795.65,128.89 1832.94,128.89 1832.94,40.88 1647.51,40.88 1647.51,128.89 1683.39,128.89 1683.39,363.67 1647.51,363.67 1647.51,451.57 1960.15,451.57 1960.15,373.08 "/>
  <polygon class="fil3" points="1062.09,291.2 1062.09,363.67 1062.09,451.57 909.16,451.57 909.16,363.67 949.78,363.67 949.78,128.89 909.16,128.89 909.16,40.88 1062.09,40.88 1062.09,128.89 1062.09,204.01 1128.42,204.01 1128.42,128.89 1128.42,40.88 1282.06,40.88 1282.06,128.89 1240.85,128.89 1240.85,363.67 1282.06,363.67 1282.06,451.57 1128.42,451.57 1128.42,363.67 1128.42,291.2 "/>
  <path class="fil3" d="M702.14 128.22l66.27 0 0 236.79 -66.27 0 0 -236.79zm178.6 244.19l0 -251.62c-0.67,-84.53 -76.46,-79.91 -76.46,-79.91l-253.78 0 0 87.34 38.96 0 0 236.79 -38.96 0 0 87.25 253.78 0c81.87,-3.33 76.46,-79.85 76.46,-79.85z"/>
  <polygon class="fil2" points="1439.06,112.11 1510.81,112.11 1510.81,152.32 1598.78,152.32 1598.78,24.87 1510.81,24.87 1286.11,24.87 1286.11,112.11 1327.42,112.11 1327.42,347.56 1284.11,347.56 1284.11,434.77 1480.99,434.77 1480.99,347.56 1439.06,347.56 1439.06,273.77 1524.35,273.77 1524.35,185.85 1439.06,185.85 "/>
  <polygon class="fil2" points="1943.92,279.19 1831.58,279.19 1831.58,347.56 1778.74,347.56 1778.74,112.11 1816.67,112.11 1816.67,24.88 1630.53,24.88 1630.53,112.11 1667.14,112.11 1667.14,347.56 1630.53,347.56 1630.53,434.77 1943.92,434.77 1943.92,356.32 "/>
  <polygon class="fil2" points="1045.24,275.13 1045.24,347.56 1045.24,434.77 892.26,434.77 892.26,347.56 933.56,347.56 933.56,112.11 892.26,112.11 892.26,24.87 1045.24,24.87 1045.24,112.11 1045.24,187.25 1045.88,187.25 1112.18,187.25 1112.18,112.11 1112.18,24.87 1265.15,24.87 1265.15,112.11 1224.49,112.11 1224.49,347.56 1265.15,347.56 1265.15,434.77 1112.18,434.77 1112.18,347.56 1112.18,275.13 1045.88,275.13 "/>
  <path class="fil2" d="M685.17 111.4l66.34 0 0 237.51 -66.34 0 0 -237.51zm178.67 244.19l0 -251.58c0,-83.84 -75.81,-79.82 -75.81,-79.82l-253.79 0 0 87.21 38.57 0 0 237.51 -38.57 0 0 87.24 253.79 0c81.85,-3.42 75.81,-80.56 75.81,-80.56z"/>
 </g>
</svg>
