<?xml version="1.0" encoding="UTF-8"?>
<!DOCTYPE svg PUBLIC "-//W3C//DTD SVG 1.1//EN" "http://www.w3.org/Graphics/SVG/1.1/DTD/svg11.dtd">
<!-- Creator: CorelDRAW 2018 (64-Bit Evaluation Version) -->
<svg xmlns="http://www.w3.org/2000/svg" xml:space="preserve" width="188px" height="92px" version="1.1" style="shape-rendering:geometricPrecision; text-rendering:geometricPrecision; image-rendering:optimizeQuality; fill-rule:evenodd; clip-rule:evenodd"
viewBox="0 0 10.65 5.22"
 xmlns:xlink="http://www.w3.org/1999/xlink">
 <defs>
  <style type="text/css">
   <![CDATA[
    .fil1 {fill:#1D1A19}
    .fil3 {fill:#4D120F}
    .fil0 {fill:#D9241D}
    .fil2 {fill:#FFFDFE}
   ]]>
  </style>
 </defs>
 <g id="Layer_x0020_1">
  <metadata id="CorelCorpID_0Corel-Layer"/>
  <g id="_2191047714752">
   <polygon class="fil0" points="10.65,2.5 10.65,0 0.01,0 0.01,2.5 "/>
   <polygon class="fil1" points="10.65,4.03 10.65,2.62 0,2.62 0,4.03 "/>
   <polygon class="fil2" points="0,5.22 10.65,5.22 10.65,5.09 10.54,5.09 10.54,4.85 10.33,4.85 10.33,5.09 10.22,5.09 10.22,4.55 10.33,4.54 10.33,4.76 10.54,4.76 10.54,4.55 10.65,4.54 10.65,4.03 0,4.03 0,2.62 10.65,2.62 10.65,2.5 0.01,2.5 0.01,0 0,0 "/>
   <path class="fil1" d="M0.57 1.48l0.12 0c-0.01,0.06 -0.11,0.09 -0.12,0.15l0.01 0.46 1.07 0 0 -0.12c0.06,0.02 0.09,0.12 0.15,0.12 0.03,0 0.07,0 0.1,0 0.06,0 0.32,0.01 0.35,-0.01 0.02,-0.03 0.02,-0.98 0.01,-1.07l-0.12 0c0.01,-0.03 0.06,-0.07 0.09,-0.09 0.05,-0.05 0.03,-0.07 0.03,-0.15 0,-0.12 0.01,-0.25 0,-0.37 -0.06,-0.01 -0.2,0 -0.26,0 -0.23,0 -0.63,-0.01 -0.82,0l0 0.12c-0.06,-0.02 -0.09,-0.11 -0.15,-0.12 -0.03,0 -0.06,0 -0.09,0 -0.12,0 -0.25,0 -0.37,0l0 1.08z"/>
   <path class="fil2" d="M4.88 2c0.25,-0.01 0.5,0 0.75,0 0.24,0 0.42,-0.07 0.57,-0.18 0.24,-0.18 0.34,-0.49 0.28,-0.81 -0.02,-0.09 -0.07,-0.21 -0.12,-0.27 -0.29,-0.38 -0.62,-0.34 -1.08,-0.34 -0.16,0 -0.33,0 -0.48,0l0 1.6 0.08 0z"/>
   <polygon class="fil2" points="2.92,2 3.3,2 3.3,1.37 4.01,1.37 4.01,1.46 4.01,2 4.09,2 4.47,2 4.48,0.4 4.01,0.4 4.01,0.97 3.39,0.97 3.3,0.97 3.3,0.5 3.3,0.4 2.84,0.4 2.84,1.99 "/>
   <path class="fil2" d="M8.6 1.82c0.1,0.06 0.18,0.11 0.31,0.15 0.14,0.03 0.27,0.05 0.42,0.05 0.25,-0.01 0.56,-0.08 0.72,-0.2 -0.02,-0.05 -0.05,-0.09 -0.07,-0.13 -0.03,-0.05 -0.07,-0.1 -0.09,-0.14l-0.07 -0.12c-0.06,0.03 -0.14,0.13 -0.42,0.16 -0.08,0.01 -0.18,0.01 -0.26,-0.01 -0.05,-0.01 -0.17,-0.05 -0.21,-0.09 -0.04,-0.02 -0.08,-0.09 -0.1,-0.15 -0.02,-0.07 -0.02,-0.15 -0.01,-0.22 0.07,-0.29 0.43,-0.33 0.67,-0.29 0.23,0.04 0.28,0.11 0.35,0.14l0.15 -0.35 0.01 -0.05c-0.11,-0.05 -0.2,-0.09 -0.33,-0.11 -0.36,-0.08 -0.8,-0.06 -1.08,0.16 -0.07,0.06 -0.14,0.14 -0.19,0.24 -0.12,0.24 -0.12,0.48 0,0.71 0.04,0.09 0.08,0.13 0.14,0.19l0.06 0.06z"/>
   <path class="fil2" d="M6.81 2l0.38 0 0.01 -0.58 0.73 -0.01 0.01 -0.29c0,-0.11 0.01,-0.09 -0.09,-0.09 -0.06,0 -0.13,0 -0.19,0 -0.13,0 -0.25,0 -0.38,0l-0.08 -0.01 0 -0.21 1.04 0 0 -0.32 0 -0.09 -1.52 0 0 1.6 0.09 0z"/>
   <path class="fil2" d="M1.87 2.95c-0.23,0.02 -0.34,0.18 -0.32,0.43 0.02,0.23 0.18,0.35 0.42,0.33 0.23,-0.02 0.34,-0.19 0.32,-0.44 -0.01,-0.22 -0.18,-0.35 -0.42,-0.32z"/>
   <path class="fil2" d="M6.63 2.95c-0.23,0.02 -0.35,0.18 -0.32,0.43 0.01,0.23 0.17,0.35 0.42,0.33 0.22,-0.02 0.34,-0.19 0.32,-0.44 -0.02,-0.22 -0.18,-0.35 -0.42,-0.32z"/>
   <path class="fil2" d="M2.72 3.7l0.19 0c0,-0.11 -0.01,-0.5 0,-0.56l0.14 0.56c0.2,0 0.15,0.03 0.19,-0.13 0.01,-0.05 0.09,-0.38 0.11,-0.41l0 0.54 0.18 0 0.01 -0.74 -0.3 0 -0.11 0.44c-0.03,-0.1 -0.09,-0.4 -0.12,-0.44l-0.28 0 -0.01 0.74z"/>
   <path class="fil0" d="M5.38 1.6c0.22,0 0.39,0.05 0.55,-0.13 0.15,-0.18 0.09,-0.46 0.01,-0.52 -0.01,0 -0.08,-0.04 -0.1,-0.05 -0.07,-0.02 -0.41,-0.02 -0.46,-0.01l0 0.71z"/>
   <path class="fil2" d="M8.54 3.69c0.04,0.01 0.18,0.01 0.21,0l0 -0.39c0.02,0.01 0.01,0 0.02,0.02l0.05 0.08c0.03,0.03 0.05,0.06 0.07,0.1 0.03,0.04 0.12,0.16 0.13,0.2l0.21 0 0 -0.74 -0.21 0 0 0.4c-0.02,-0.02 -0.05,-0.07 -0.07,-0.1 -0.04,-0.07 -0.17,-0.27 -0.2,-0.3l-0.21 0 0 0.73z"/>
   <path class="fil2" d="M0.43 3.7l0.22 0c0,-0.06 -0.01,-0.26 0,-0.3l0.24 0 0 0.3 0.23 0 0 -0.74 -0.23 0 0 0.25 -0.24 0 0 -0.25 -0.22 0 0 0.74z"/>
   <polygon class="fil2" points="7.37,3.69 7.6,3.7 7.64,3.57 7.89,3.57 7.92,3.7 8.15,3.7 7.89,2.96 7.64,2.96 "/>
   <path class="fil2" d="M3.99 3.69l0.61 0.01 0 -0.17 -0.39 0 0 -0.14c0.06,-0.02 0.27,-0.01 0.35,-0.01l0 -0.15 -0.35 0 0 -0.12 0.38 0 0 -0.15c-0.04,-0.01 -0.55,-0.01 -0.6,0l0 0.73z"/>
   <path class="fil2" d="M9.86 3.44l-0.21 0.01c0.02,0.18 0.13,0.25 0.31,0.26 0.18,0 0.32,-0.06 0.34,-0.22 0.04,-0.26 -0.27,-0.27 -0.37,-0.31 -0.13,-0.05 0.07,-0.19 0.14,-0.03l0.01 0.03 0.2 -0.02c-0.01,-0.17 -0.14,-0.22 -0.32,-0.22 -0.33,0.01 -0.36,0.32 -0.13,0.41 0.06,0.03 0.14,0.04 0.2,0.07 0.09,0.03 0.07,0.13 -0.02,0.14 -0.09,0.01 -0.13,-0.04 -0.15,-0.12z"/>
   <path class="fil3" d="M0.79 1.43l0.36 0c0.03,-0.09 0.02,-0.3 0.02,-0.4 0,-0.07 0.01,-0.36 -0.01,-0.41 -0.05,-0.02 -0.31,0 -0.38,0 0.01,0.19 -0.01,0.66 0.01,0.81z"/>
   <polygon class="fil2" points="1.67,1.86 2.03,1.86 2.03,1.08 1.67,1.08 "/>
   <path class="fil2" d="M1.26 0.99l0.77 0 0 -0.36c-0.21,0 -0.59,-0.01 -0.77,0l0 0.36z"/>
   <path class="fil0" d="M0.8 1.41l0.32 0c0.03,0 0.01,0 0.03,-0.01 0.01,-0.03 0.01,-0.69 0,-0.77l-0.35 0 0 0.78z"/>
   <polygon class="fil2" points="0.8,1.86 1.56,1.86 1.56,1.5 0.8,1.5 "/>
   <path class="fil1" d="M4.88 2l0 0.09c0.07,0.01 0.69,0 0.81,0 0.22,0 0.46,-0.05 0.62,-0.19 0.14,-0.12 0.26,-0.29 0.27,-0.55 0,-0.14 -0.01,-0.25 -0.05,-0.36 -0.02,-0.05 -0.11,-0.23 -0.17,-0.25 0.05,0.06 0.1,0.18 0.12,0.27 0.06,0.32 -0.04,0.63 -0.28,0.81 -0.15,0.11 -0.33,0.18 -0.57,0.18 -0.25,0 -0.5,-0.01 -0.75,0z"/>
   <path class="fil1" d="M8.65 4.54c-0.3,0.06 -0.27,0.63 0.13,0.56 0.14,-0.03 0.22,-0.17 0.2,-0.35 -0.03,-0.15 -0.16,-0.25 -0.33,-0.21z"/>
   <path class="fil1" d="M2.9 4.54c-0.31,0.07 -0.25,0.63 0.13,0.56 0.15,-0.03 0.23,-0.17 0.2,-0.34 -0.02,-0.15 -0.15,-0.26 -0.33,-0.22z"/>
   <polygon class="fil2" points="5.36,3.69 5.93,3.7 5.93,3.51 5.59,3.51 5.59,2.96 5.36,2.96 "/>
   <path class="fil1" d="M0.14 5.09l0.12 0c0.01,-0.06 0.09,-0.36 0.11,-0.4 0.03,0.08 0.08,0.35 0.11,0.4l0.11 0 0.14 -0.54 -0.12 -0.01c-0.01,0.06 -0.02,0.13 -0.04,0.19 0,0.02 -0.01,0.05 -0.02,0.08l-0.01 0.07c0,0.02 0,0 0,0.02l-0.1 -0.35 -0.14 -0.01 -0.1 0.37 -0.08 -0.36 -0.11 -0.01 0.13 0.55z"/>
   <path class="fil1" d="M6.81 2l0 0.09 0.47 0c0.02,-0.08 0,-0.41 0.01,-0.54 0,0 0,-0.01 0,-0.02l0 -0.01c0.02,-0.02 0.54,-0.01 0.64,-0.01 0.02,0 0.03,0 0.05,0 0.07,0 0.04,-0.01 0.04,-0.19 0,-0.08 0.02,-0.19 -0.02,-0.19 -0.01,-0.01 -0.01,-0.01 -0.02,-0.01 -0.01,0 -0.03,0 -0.04,0l-0.01 0.29 -0.73 0.01 -0.01 0.58 -0.38 0z"/>
   <path class="fil1" d="M7.92 5.05l0 0.04 0.11 0 0 -0.23c0.1,0 0.12,0.04 0.16,0.1 0.1,0.16 0.06,0.13 0.22,0.13 -0.02,-0.04 -0.06,-0.09 -0.08,-0.13 -0.06,-0.08 -0.06,-0.06 -0.1,-0.11 0.02,-0.01 0.17,-0.04 0.13,-0.2 -0.04,-0.13 -0.22,-0.11 -0.4,-0.11l-0.04 0.01 0 0.5z"/>
   <path class="fil1" d="M4.3 5.09l0.11 0 0 -0.23c0.1,0 0.11,0.03 0.15,0.08 0.02,0.03 0.09,0.13 0.1,0.15l0.13 0c-0.03,-0.08 -0.11,-0.18 -0.18,-0.24 0.06,-0.03 0.1,-0.01 0.13,-0.09 0.02,-0.06 0,-0.14 -0.03,-0.17 -0.07,-0.07 -0.3,-0.05 -0.41,-0.04l0 0.54z"/>
   <path class="fil1" d="M4.09 2l0.01 0.09 0.46 0c0.01,-0.17 0.01,-0.6 0.01,-0.79 0,-0.02 0.01,-0.78 -0.01,-0.8 -0.02,-0.01 -0.06,0 -0.08,-0.01l0 -0.09 -0.01 1.6 -0.38 0z"/>
   <path class="fil1" d="M8.93 1.49c0,-0.06 -0.03,-0.04 -0.03,-0.19 0.01,-0.2 0.12,-0.31 0.32,-0.37 0.12,-0.03 0.27,-0.03 0.4,0 0.07,0.01 0.18,0.06 0.24,0.09 0.02,0.01 0.04,0.03 0.07,0.04 0.01,-0.02 0.15,-0.36 0.15,-0.39 -0.02,-0.03 -0.07,-0.04 -0.09,-0.05l-0.15 0.35c-0.07,-0.03 -0.12,-0.1 -0.35,-0.14 -0.24,-0.04 -0.6,0 -0.67,0.29 -0.01,0.07 -0.01,0.15 0.01,0.22 0.02,0.06 0.06,0.13 0.1,0.15z"/>
   <path class="fil1" d="M2.92 2l0.01 0.09 0.46 0c0.01,-0.08 -0.01,-0.58 0,-0.61 0.01,-0.02 -0.01,0.01 0.01,-0.01 0.03,-0.02 0.52,0 0.61,-0.01l0 -0.09 -0.71 0 0 0.63 -0.38 0z"/>
   <path class="fil1" d="M10.11 5.02l0 -0.22 -0.23 0 0 0.09 0.12 0 0 0.07c-0.05,0.03 -0.13,0.07 -0.2,0.03 -0.06,-0.04 -0.09,-0.1 -0.08,-0.19 0.01,-0.18 0.15,-0.19 0.22,-0.16 0.04,0.03 0.03,0.04 0.06,0.07l0.11 -0.01c-0.05,-0.15 -0.15,-0.18 -0.29,-0.16 -0.34,0.05 -0.28,0.65 0.14,0.55 0.08,-0.02 0.1,-0.04 0.15,-0.07z"/>
   <path class="fil1" d="M5.56 5.02l0 -0.22 -0.24 0 0 0.09 0.13 0 0 0.07c-0.06,0.03 -0.13,0.07 -0.21,0.03 -0.06,-0.04 -0.08,-0.1 -0.08,-0.19 0.01,-0.09 0.04,-0.14 0.11,-0.16 0.13,-0.04 0.17,0.06 0.18,0.07l0.1 -0.01c-0.04,-0.14 -0.14,-0.19 -0.29,-0.16 -0.27,0.05 -0.28,0.46 -0.05,0.54 0.13,0.05 0.25,0.01 0.35,-0.06z"/>
   <path class="fil1" d="M9.89 1.55c0.02,0.04 0.06,0.09 0.09,0.14 0.02,0.04 0.05,0.08 0.07,0.13 -0.16,0.12 -0.47,0.19 -0.72,0.2 -0.15,0 -0.28,-0.02 -0.42,-0.05 -0.13,-0.04 -0.21,-0.09 -0.31,-0.15 0.01,0.03 0.03,0.04 0.05,0.06 0.08,0.07 0.16,0.11 0.25,0.15 0.12,0.04 0.27,0.08 0.42,0.08 0.27,0 0.42,-0.02 0.65,-0.11 0.04,-0.01 0.14,-0.06 0.17,-0.09 -0.01,-0.01 -0.2,-0.34 -0.23,-0.38 -0.03,0.01 -0.01,0 -0.02,0.02z"/>
   <path class="fil1" d="M7.28 1.03l0 -0.12c0.09,-0.02 0.41,0 0.52,0 0.09,0 0.48,0.01 0.53,-0.01l0 -0.4 -0.09 -0.01 0 0.32 -1.04 0 0 0.21 0.08 0.01z"/>
   <polygon class="fil1" points="7.37,5.09 7.48,5.09 7.48,4.86 7.69,4.85 7.69,5.09 7.8,5.09 7.8,4.54 7.69,4.54 7.69,4.76 7.48,4.76 7.48,4.54 7.37,4.54 "/>
   <polygon class="fil1" points="5.66,5.09 5.77,5.09 5.77,4.85 5.99,4.85 5.99,5.09 6.1,5.09 6.1,4.54 5.99,4.54 5.99,4.76 5.78,4.76 5.77,4.55 5.66,4.54 "/>
   <polygon class="fil1" points="1.46,5.09 1.57,5.09 1.57,4.85 1.79,4.85 1.79,5.09 1.9,5.09 1.9,4.55 1.79,4.54 1.79,4.76 1.57,4.76 1.57,4.55 1.46,4.55 "/>
   <polygon class="fil1" points="10.65,5.09 10.65,4.54 10.54,4.55 10.54,4.76 10.33,4.76 10.33,4.54 10.22,4.55 10.22,5.09 10.33,5.09 10.33,4.85 10.54,4.85 10.54,5.09 "/>
   <path class="fil1" d="M3.76 4.54l-0.11 0c0,0.1 0,0.19 0,0.28 0,0.11 0.01,0.19 -0.11,0.19 -0.11,0 -0.11,-0.08 -0.11,-0.18 0,-0.09 0,-0.19 0,-0.29l-0.11 0c0,0.12 -0.01,0.28 0.01,0.39 0.01,0.12 0.08,0.17 0.21,0.17 0.28,0.01 0.22,-0.23 0.22,-0.56z"/>
   <path class="fil1" d="M9.5 4.55l-0.11 -0.01c0,0.1 0,0.19 0,0.28 0,0.1 0.01,0.19 -0.11,0.19 -0.1,-0.01 -0.1,-0.08 -0.1,-0.18 0,-0.09 0,-0.19 0,-0.28l-0.11 -0.01c-0.01,0.11 -0.01,0.28 0,0.39 0.01,0.12 0.09,0.17 0.21,0.17 0.29,0.01 0.22,-0.24 0.22,-0.55z"/>
   <path class="fil1" d="M5.38 1.6l0 -0.71c0.05,-0.01 0.39,-0.01 0.46,0.01 0.02,0.01 0.09,0.05 0.1,0.05 -0.03,-0.07 -0.14,-0.14 -0.25,-0.16 -0.08,-0.01 -0.3,0 -0.4,0l0 0.81 0.09 0z"/>
   <path class="fil1" d="M6.65 3.12c-0.11,0.02 -0.13,0.12 -0.12,0.24 0,0.11 0.06,0.2 0.18,0.17 0.11,-0.02 0.12,-0.13 0.11,-0.24 0,-0.11 -0.06,-0.2 -0.17,-0.17z"/>
   <path class="fil1" d="M1.89 3.12c-0.11,0.03 -0.13,0.13 -0.12,0.24 0.01,0.11 0.07,0.2 0.19,0.17 0.1,-0.02 0.12,-0.13 0.11,-0.24 -0.01,-0.11 -0.06,-0.19 -0.18,-0.17z"/>
   <path class="fil1" d="M2.36 5.09l0.11 0 0 -0.22c0.01,-0.04 0.17,-0.27 0.2,-0.32l-0.13 -0.01c-0.02,0.05 -0.1,0.18 -0.12,0.22 -0.05,-0.06 -0.09,-0.17 -0.14,-0.22l-0.12 0c0.04,0.1 0.2,0.27 0.2,0.36 0,0.07 0,0.13 0,0.19z"/>
   <path class="fil2" d="M8.67 4.64c-0.08,0.02 -0.12,0.11 -0.1,0.22 0.01,0.09 0.07,0.17 0.18,0.14 0.18,-0.04 0.15,-0.43 -0.08,-0.36z"/>
   <path class="fil2" d="M2.93 4.63c-0.18,0.05 -0.14,0.43 0.08,0.37 0.17,-0.04 0.15,-0.42 -0.08,-0.37z"/>
   <path class="fil1" d="M0.96 4.63l0.16 0.01 0 0.45 0.11 0 0 -0.45 0.16 0 0 -0.1c-0.07,0 -0.38,0 -0.43,0.01l0 0.08z"/>
   <polygon class="fil1" points="6.86,4.64 7.02,4.64 7.02,5.09 7.13,5.09 7.13,4.64 7.29,4.64 7.29,4.55 6.86,4.54 "/>
   <polygon class="fil1" points="6.18,4.64 6.34,4.64 6.34,5.09 6.45,5.09 6.45,4.64 6.61,4.64 6.61,4.55 6.18,4.54 "/>
   <polygon class="fil1" points="0.78,5.09 0.89,5.09 0.89,4.54 0.78,4.54 "/>
   <polygon class="fil1" points="4.85,5.09 4.96,5.09 4.96,4.54 4.85,4.54 "/>
   <path class="fil1" d="M3.39 0.97c0,-0.07 0.01,-0.44 -0.01,-0.47 -0.01,-0.01 -0.05,-0.01 -0.08,0l0 0.47 0.09 0z"/>
   <path class="fil2" d="M8.03 4.78c0.11,0 0.22,0.01 0.22,-0.07 0.01,-0.1 -0.14,-0.07 -0.22,-0.07l0 0.14z"/>
   <path class="fil2" d="M4.41 4.77c0.08,0.01 0.22,0.03 0.22,-0.06 0.01,-0.05 -0.02,-0.07 -0.07,-0.07 -0.04,0 -0.11,-0.01 -0.15,0l0 0.13z"/>
   <path class="fil1" d="M7.68 3.41l0.16 0c-0.01,-0.04 -0.06,-0.23 -0.08,-0.26l-0.08 0.26z"/>
   <path class="fil1" d="M3.87 5.09l0.05 0c0,0.06 -0.03,0.06 -0.05,0.09l0.01 0.03c0.1,-0.02 0.1,-0.11 0.1,-0.22l-0.11 0 0 0.1z"/>
  </g>
 </g>
</svg>
