<?xml version="1.0" encoding="UTF-8"?>
<!DOCTYPE svg PUBLIC "-//W3C//DTD SVG 1.1//EN" "http://www.w3.org/Graphics/SVG/1.1/DTD/svg11.dtd">
<!-- Creator: CorelDRAW 2018 (64-Bit Evaluation Version) -->
<svg xmlns="http://www.w3.org/2000/svg" xml:space="preserve" width="454px" height="90px" version="1.1" style="shape-rendering:geometricPrecision; text-rendering:geometricPrecision; image-rendering:optimizeQuality; fill-rule:evenodd; clip-rule:evenodd"
viewBox="0 0 203.75 40.32"
 xmlns:xlink="http://www.w3.org/1999/xlink">
 <defs>
  <style type="text/css">
   <![CDATA[
    .fil0 {fill:#005B75}
    .fil2 {fill:#B02A30}
    .fil1 {fill:#F99D27}
    .fil3 {fill:white}
   ]]>
  </style>
 </defs>
 <g id="Layer_x0020_1">
  <metadata id="CorelCorpID_0Corel-Layer"/>
  <g id="g2542">
   <polygon id="path13" class="fil0" points="37.05,39.94 43.92,39.94 49.32,19.86 42.44,19.86 "/>
   <polygon id="path15" class="fil0" points="72.36,39.94 79.24,39.94 84.63,19.86 77.75,19.86 "/>
   <polygon id="path17" class="fil0" points="107.67,39.94 114.55,39.94 119.94,19.86 113.06,19.86 "/>
   <path id="path19" class="fil0" d="M65.96 26.74l6.88 0c0.92,-4.52 -2.01,-6.84 -8.75,-6.84 -7.8,0 -13.1,3.81 -14.88,10.44 -1.61,6 1.58,9.65 8.92,9.65 7.42,0 11.8,-2.3 13.67,-7.46l-6.9 0c-0.96,2.27 -2.77,3.46 -5.21,3.46 -3.33,0 -4.63,-2.11 -3.61,-5.92 1.07,-3.98 3.58,-6.17 6.94,-6.17 2.11,0 3.1,0.95 2.94,2.84z"/>
   <path id="path21" class="fil0" d="M101.28 26.74l6.87 0c0.92,-4.52 -2,-6.84 -8.75,-6.84 -7.8,0 -13.1,3.81 -14.88,10.44 -1.61,6 1.58,9.65 8.92,9.65 7.42,0 11.8,-2.3 13.68,-7.46l-6.91 0c-0.96,2.27 -2.77,3.46 -5.21,3.46 -3.33,0 -4.63,-2.11 -3.61,-5.92 1.07,-3.98 3.58,-6.17 6.94,-6.17 2.11,0 3.1,0.95 2.95,2.84z"/>
   <path id="path23" class="fil1" d="M10.49 8.72c9.21,-9.11 20.35,-11.47 24.79,-5.24 4.44,6.23 0.55,18.74 -8.66,27.85 -9.21,9.11 -20.34,11.46 -24.78,5.24 -4.44,-6.23 -0.55,-18.74 8.65,-27.85z"/>
   <path id="path25" class="fil2" d="M16.59 3.86c-0.99,0.75 -2.05,1.61 -3.04,2.61 -8.07,7.93 -11.43,18.84 -7.45,24.29 4.09,5.45 14.03,3.47 22.22,-4.59 4.41,-4.27 7.39,-9.29 8.63,-13.94 0.37,-3.41 -0.12,-6.45 -1.68,-8.74 -3.54,-4.83 -11.11,-4.46 -18.68,0.37z"/>
   <path id="path27" class="fil3" d="M27.64 3.58c1.08,1.07 0.42,3.41 -1.41,5.26 -1.84,1.82 -4.24,2.47 -5.28,1.42 -1.11,-1.06 -0.45,-3.43 1.39,-5.29 1.86,-1.86 4.26,-2.43 5.3,-1.39zm-6.49 32.24c-4.31,3.24 -8.76,4.84 -13.11,4.17 1.82,0.09 3.3,-1.93 4.51,-4.64 1.22,-2.78 1.96,-5.36 2.55,-7.77 0.85,-3.82 0.92,-6.55 0.48,-7.14 -0.74,-0.97 -2.41,-0.72 -4.31,0.37 -0.9,0.5 -2.11,0.17 -0.69,-1.56 1.45,-1.74 7.18,-5.93 9.25,-6.58 2.26,-0.65 4.84,0.24 3.97,2.71 -0.62,1.81 -8.55,22.6 -2.65,20.44z"/>
   <path id="path29" class="fil0" d="M125.07 39.98l10.31 0c2.94,0 5.12,-0.22 7.21,-1.67 1.4,-0.95 2.44,-2.4 2.86,-3.99 0.74,-2.77 -0.52,-4.61 -3.67,-5.05 2.97,-0.56 4.84,-2.12 5.48,-4.49 0.49,-1.85 0.09,-3.16 -1.23,-4.05 -1.1,-0.72 -2.88,-0.84 -5.31,-0.84l-10.26 0 -5.39 20.09zm8.9 -17.02l4.27 0c3.22,0 4.71,0.39 4.17,2.4 -0.54,2.01 -2.27,2.51 -5.6,2.51l-4.16 0 1.32 -4.91zm-3.71 13.81l1.58 -5.86 4.49 0c3.47,0 5.01,0.62 4.37,2.99 -0.58,2.17 -2.28,2.87 -5.41,2.87l-5.03 0z"/>
   <path id="path31" class="fil0" d="M156.8 39.98l4.13 0c0.12,-0.95 0.34,-1.98 0.65,-3.12l1.5 -5.61c1,-3.71 -0.84,-5.61 -5.51,-5.61 -4.5,0 -7.43,1.56 -8.33,4.19l3.97 0c0.52,-1.32 1.66,-1.93 3.56,-1.93 2.12,0 2.87,0.95 2.33,2.99l-0.07 0.25 -2.18 0c-6.15,0 -9.46,1.11 -10.41,4.65 -0.74,2.74 0.99,4.53 4.65,4.53 2.37,0 4.46,-0.79 6.11,-2.26l-0.4 1.92zm1.59 -6.47l-0.06 0.25c-0.7,2.59 -2.79,4.16 -5.37,4.16 -1.87,0 -2.65,-0.73 -2.29,-2.07 0.49,-1.84 2.11,-2.34 5.1,-2.34l2.62 0z"/>
   <path id="path33" class="fil0" d="M164.49 39.98l4.17 0 1.92 -7.17c0.7,-2.59 3.08,-4.41 5.57,-4.41 2.43,0 3.28,1.43 2.52,4.27l-1.97 7.31 4.08 0 2.31 -8.59c0.97,-3.63 -0.87,-5.72 -4.92,-5.72 -2.63,0 -4.77,0.89 -6.56,2.79l0.5 -2.48 -4.11 0c-0.42,2.2 -0.71,3.57 -0.85,4.1l-2.66 9.9z"/>
   <polygon id="path35" class="fil0" points="184.46,39.98 188.51,39.98 190.54,32.42 196,39.98 201.56,39.98 195.41,31.97 203.75,25.98 198.52,25.98 190.75,31.61 193.9,19.89 189.85,19.89 "/>
  </g>
 </g>
</svg>
