<?xml version="1.0" encoding="UTF-8"?>
<!DOCTYPE svg PUBLIC "-//W3C//DTD SVG 1.1//EN" "http://www.w3.org/Graphics/SVG/1.1/DTD/svg11.dtd">
<!-- Creator: CorelDRAW 2018 (64-Bit Evaluation Version) -->
<svg xmlns="http://www.w3.org/2000/svg" xml:space="preserve" width="256px" height="89px" version="1.1" style="shape-rendering:geometricPrecision; text-rendering:geometricPrecision; image-rendering:optimizeQuality; fill-rule:evenodd; clip-rule:evenodd"
viewBox="0 0 35.25 12.22"
 xmlns:xlink="http://www.w3.org/1999/xlink">
 <defs>
  <style type="text/css">
   <![CDATA[
    .fil1 {fill:#009CD9}
    .fil0 {fill:#322C65}
   ]]>
  </style>
 </defs>
 <g id="Layer_x0020_1">
  <metadata id="CorelCorpID_0Corel-Layer"/>
  <g id="_2191098600304">
   <path class="fil0" d="M27.86 9.72c-0.42,0.28 -1.75,0.18 -2.32,0.08 -0.1,-0.55 -0.1,-6.99 0.02,-7.39 0.51,-0.05 1.54,-0.15 1.91,0.07 0.77,-0.02 1.17,0.62 1.03,1.46 -0.14,0.9 -0.91,0.87 -1.78,0.87l0 2.19c1,0 1.83,0.01 2.14,0.8 0.4,1.01 -0.2,1.86 -1,1.92zm-4.72 2.29c2.18,0.04 5.66,0.33 7.1,-0.84 0.68,-0.56 1.26,-1.42 1.24,-2.76 -0.02,-1.22 -0.68,-2.27 -1.46,-2.59 0.24,-0.54 1.56,-1.5 0.82,-3.6 -0.33,-0.92 -1.52,-2.04 -2.82,-1.91 -0.51,0.04 -1.76,-0.07 -2.42,-0.07 -0.79,0.01 -1.68,0.04 -2.46,-0.02l0 11.79z"/>
   <path class="fil0" d="M15.28 8.5c-0.33,0.29 -1.29,1.59 -1.36,2.04 6.06,4.87 11.17,-2.15 6,-4.97 -1.13,-0.62 -3.48,-1.12 -3.11,-2.33 0.3,-0.97 1.74,-0.91 2.7,-0.48 0.58,0.25 0.76,0.55 1.17,0.77 0.29,-0.34 1.02,-1.8 1.14,-2.14 -2.42,-2.08 -6.26,-1.8 -7.37,0.89 -0.42,1 -0.32,2.21 0.28,3 1.25,1.64 3.6,1.82 4.47,2.81 1.01,1.15 -1.08,2.67 -3.38,0.83 -0.29,-0.23 -0.23,-0.28 -0.54,-0.42z"/>
   <polygon class="fil0" points="32.63,12.01 35.25,12.02 35.24,0.19 32.63,0.23 "/>
   <path class="fil0" d="M23.14 12.01l0 -11.79c0.78,0.06 1.67,0.03 2.46,0.02 0.66,0 1.91,0.11 2.42,0.07 -0.32,-0.31 -4.27,-0.2 -4.96,-0.11 -0.14,1.77 -0.02,4.11 -0.02,5.94 0,0.4 -0.12,5.53 0.1,5.87z"/>
   <path class="fil0" d="M27.86 9.72l-2.26 0.03 0 -7.24 1.87 -0.03c-0.37,-0.22 -1.4,-0.12 -1.91,-0.07 -0.12,0.4 -0.12,6.84 -0.02,7.39 0.57,0.1 1.9,0.2 2.32,-0.08z"/>
   <path class="fil1" d="M6.09 0c3.36,0 6.09,2.73 6.09,6.09 0,3.21 -2.49,5.84 -5.63,6.07l0 -4.3c0.78,-0.21 1.36,-0.92 1.36,-1.77 0,-1.01 -0.81,-1.83 -1.82,-1.83 -1.01,0 -1.83,0.82 -1.83,1.83 0,0.85 0.58,1.56 1.37,1.77l0 4.3c-3.15,-0.23 -5.63,-2.86 -5.63,-6.07 0,-3.36 2.73,-6.09 6.09,-6.09z"/>
  </g>
 </g>
</svg>
